<svg xmlns="http://www.w3.org/2000/svg" viewBox="0 0 64 64">
  <rect width="64" height="64" rx="12" fill="#74ACDF" />
  <g fill="#FCBF49" transform="translate(32 32)">
    <g>
      <polygon points="0,-24.32 -2.176,-12.16 2.176,-12.16" />
      <polygon points="0,-24.32 -2.176,-12.16 2.176,-12.16" transform="rotate(22.5)" />
      <polygon points="0,-24.32 -2.176,-12.16 2.176,-12.16" transform="rotate(45)" />
      <polygon points="0,-24.32 -2.176,-12.16 2.176,-12.16" transform="rotate(67.5)" />
      <polygon points="0,-24.32 -2.176,-12.16 2.176,-12.16" transform="rotate(90)" />
      <polygon points="0,-24.32 -2.176,-12.16 2.176,-12.16" transform="rotate(112.5)" />
      <polygon points="0,-24.32 -2.176,-12.16 2.176,-12.16" transform="rotate(135)" />
      <polygon points="0,-24.32 -2.176,-12.16 2.176,-12.16" transform="rotate(157.5)" />
      <polygon points="0,-24.32 -2.176,-12.16 2.176,-12.16" transform="rotate(180)" />
      <polygon points="0,-24.32 -2.176,-12.16 2.176,-12.16" transform="rotate(202.5)" />
      <polygon points="0,-24.32 -2.176,-12.16 2.176,-12.16" transform="rotate(225)" />
      <polygon points="0,-24.32 -2.176,-12.16 2.176,-12.16" transform="rotate(247.5)" />
      <polygon points="0,-24.32 -2.176,-12.16 2.176,-12.16" transform="rotate(270)" />
      <polygon points="0,-24.32 -2.176,-12.16 2.176,-12.16" transform="rotate(292.5)" />
      <polygon points="0,-24.32 -2.176,-12.16 2.176,-12.16" transform="rotate(315)" />
      <polygon points="0,-24.32 -2.176,-12.16 2.176,-12.16" transform="rotate(337.5)" />
    </g>
    <circle r="12.8" />
  </g>
</svg>
